# xmcd
#
# Track frame offsets:
#	150
#	1330
#	17875
#	34075
#	62440
#	79480
#	91927
#	108680
#	121122
#	138042
#	158265
#	173440
#	188442
#
# Disc length: 2864 seconds
#
# Revision: 0
# Processed by: cddbd v1.5PL3 Copyright (c) Steve Scherf et al.
# Submitted via: dBpowerAMP V4.0
#
DISCID=8b0b2e0d
DTITLE=Mambo Chillum - Mambo Chillum
DYEAR=1900
DGENRE=
TTITLE0=Intro
TTITLE1=Mr B
TTITLE2=Mornin' Light
TTITLE3=Hoodoo
TTITLE4=Swing Sister Swing
TTITLE5=Monkey Doodl
TTITLE6=Bongo
TTITLE7=300 Pounds of Joy
TTITLE8=Shotgun Boogie
TTITLE9=Boogie
TTITLE10=Tonight my God
TTITLE11=Hate to See You Go
TTITLE12=Dreamin' Stuff
EXTD=
EXTT0=
EXTT1=
EXTT2=
EXTT3=
EXTT4=
EXTT5=
EXTT6=
EXTT7=
EXTT8=
EXTT9=
EXTT10=
EXTT11=
EXTT12=
PLAYORDER=
